<svg xmlns="http://www.w3.org/2000/svg" width="36" height="36"><g fill="none" fill-rule="evenodd"><path fill="#001949" d="M20.379 5.513h2.298c-.21 1.019-1.045 1.63-2.09 1.63-.835 0-1.253-.407-1.253-.815 0-.204.418-.816 1.045-.816zm9.401-2.855H8.26c-1.044 0-1.88.815-2.089 1.631-.209 1.631-1.044 6.729-1.044 6.729h3.76l-.417 2.447c.835-1.428 2.089-2.855 3.551-3.67H7.634c1.045-2.855 3.552-5.302 8.984-5.302h6.268s0 .408-.21 1.02H27.9c1.462 0 2.09.611 1.88 2.039-.209 1.427-.626 3.67-.626 3.67.208.204.835.612 1.044.816.21.203.418 0 .418-.204 0-.408.836-4.894 1.045-6.933.418-1.835-.627-2.243-1.88-2.243z"/><path fill="#3F8C47" d="M24.975 10.202c-4.805 0-8.775 1.836-10.029 9.584-1.253 8.564-2.089 13.662-2.089 13.662h3.97s.835-5.098 2.09-13.662c.835-6.117 4.178-8.36 10.237-8.564-1.254-.612-2.508-1.02-4.179-1.02z"/></g></svg>