<svg xmlns="http://www.w3.org/2000/svg" width="36" height="36"><g fill="none" fill-rule="evenodd"><path fill="#FFF" d="M1.27 8.043h33.38l-4.903 17.046s-1.232 2.706-2.884 2.787c-1.652.081-17.569.081-17.569.081s-2.543-.73-3.33-2.895C5.178 22.897 1.27 8.043 1.27 8.043z"/><path fill="#000" fill-rule="nonzero" d="M9.242 28.498l-.079-.027c-.052-.027-2.727-.73-3.67-3.22-.42-1.136-1.574-5.384-2.675-9.389a28984.61 28984.61 0 0 0-2.072-7.71l.498-.136-.498.135-.183-.676h34.77L30.219 25.25l-.026.027c0 .027-.315.73-.891 1.461-.551.73-1.338 1.57-2.465 1.65-1.705.082-17.595.082-17.595.082v.027zM3.84 15.592c1.075 3.977 2.255 8.28 2.649 9.28.55 1.597 2.438 2.381 2.884 2.517h8.103c4.169 0 8.6-.027 9.387-.081.472-.027 1.049-.433 1.495-.974a6.94 6.94 0 0 0 .891-1.407c.026-.027.026-.055.026-.055L33.97 8.557H1.98a325.594 325.594 0 0 0 1.861 7.035z"/><path fill="#F01112" d="M4.968 10.695h5.716L12.048 21.3s.13.812.524.812h6.949V24.9h-9.519s-.996.405-1.704-2.11c-.708-2.517-3.33-12.095-3.33-12.095z"/><path fill="#F01112" fill-rule="nonzero" d="M11.89 11.588s0-.758.735-.758c.734 0 6.686-.054 6.686-.054s.997.216.997 1.082c0 .866-.263 4.924-.263 4.924s0 .487-.655.542c-.656.054-3.094.054-3.094.054s-.42-.054-.394.406c.026.46.21.568.367.568h3.252s.315-.054.315.784v1.543s-.105.324-.499.324c-.393 0-5.768-.027-5.768-.027s-.577.054-.76-1.136c-.184-1.19-.919-8.252-.919-8.252zm3.855 4.518c0 .325.21.406.498.406.289 0 .315-.379.315-.379v-2.327s-.026-.433-.472-.433c-.446 0-.367.433-.367.433s.026 1.948.026 2.3z"/><path fill="#F01112" d="M21.619 10.695h3.46s.316-.054.158.676c-.157.73-1.154 6.494-1.154 6.494s-.052.676.42.703c.472.027.63-.893.63-.893l1.258-6.737s-.026-.325.315-.325h3.723s.367.055.157.84c-.21.757-3.408 12.662-3.408 12.662s-.289 1.028-1.05 1.028h-5.716v-3.03h3.619s.472-.163.708-.812c.21-.65.34-1.163.34-1.163s.106-.433-.13-.488c-.236-.054-.446.46-.446.46s-.184.947-.498.974c-.315.028-2.675 0-2.675 0s-.603-.027-.577-.73c.027-.704.656-9.226.656-9.226s-.053-.433.21-.433z"/></g></svg>