<svg width="36" height="36" xmlns="http://www.w3.org/2000/svg"><path d="M31.793 14.566c-.278-.817-.434-1.01-1.224-1.01h-1.927l-3.084 9.947h1.571l.662-2.141h3.664l.667 2.14h2.731l-3.06-8.936zm-3.56 5.33l1.378-4.539 1.396 4.54h-2.775zM16.52 17.454l.494-.72c1.04-1.525.324-3.18-1.734-3.18h-4.393v9.952h4.238c3.725 0 4.84-4.282 1.396-6.052m-3.262 4.723V14.85h1.296c.623 0 1.161.508 1.161 1.123 0 .215-.04.416-.254.719l-.84 1.243c.879.208 1.466.869 1.466 2.102 0 1.502-.91 2.14-2.111 2.14h-.718m-5.272-4.723l.492-.72c1.044-1.525.329-3.18-1.734-3.18H2.357v9.952h4.237c3.722 0 4.849-4.282 1.393-6.052m-2.543 4.723h-.71V14.85h1.288c.625 0 1.168.508 1.168 1.123 0 .215-.041.416-.258.719l-.844 1.243c.881.208 1.467.869 1.467 2.102 0 1.502-.908 2.14-2.11 2.14m15.509-7.327c-.359-1.12-.541-1.295-1.23-1.295h-1.78l3.299 9.948h2.423l3.07-9.948h-1.593l-2.276 7.556-1.913-6.26" fill="#253975" fill-rule="evenodd"/></svg>