<svg xmlns="http://www.w3.org/2000/svg" width="36" height="36"><path fill="#DF040B" d="M31.097 17.47c-.597-.171-1.958-.44-3.223-.708.024-.024.048-.024.048-.048.979-.927 2.865-4.583 2.865-4.583.406-.878-.478-2.34-.478-2.34l-.048-.074c-1.575-2.34-3.963-4.193-6.422-5.314 0 0-1.408-.244-2.148.902-.359.56-1.099 1.852-1.767 3.047-.024-.146-.048-.293-.072-.341-.549-1.244-3.318-4.242-3.318-4.242-.693-.658-2.34-.293-2.34-.293l-.095.025c-2.674.755-5.157 2.486-6.972 4.51 0 0-.692 1.292.143 2.364.406.512 1.361 1.634 2.245 2.682-.096-.024-.215-.024-.263-.024-1.313.17-4.942 2.023-4.942 2.023-.812.463-.931 2.194-.931 2.194v.097c-.072 2.853.836 5.754 2.196 8.143 0 0 1.003 1.048 2.268.536.597-.244 1.934-.853 3.152-1.414-.239 1.536.095 5.168.095 5.168.144.951 1.648 1.707 1.648 1.707l.095.049c2.555 1.097 5.563 1.316 8.213.877 0 0 1.337-.585 1.313-1.95 0-.658-.072-2.145-.143-3.51.095.097.19.194.262.219 1.17.658 5.157 1.34 5.157 1.34.931.123 2.03-1.218 2.03-1.218l.047-.073c1.695-2.268 2.627-5.169 2.913-7.899-.024-.049-.239-1.511-1.528-1.853zm-18.67-7.046A9.106 9.106 0 0 1 18.11 8.45c.478 0 1.29.098 1.648.147l-1.242 2.218s-.382.536-.43 1.243c0-.243-.095-.731-.835-1.17-1.027-.634-2.149.439-3.27.634-1.123.195-1.863 0-1.553-1.097zm-1.217 5.997c-.884.829-.215 2.218-.358 3.364-.144 1.146-.573 1.829-1.504 1.195v.024a9.725 9.725 0 0 1-.191-6.119c.119-.439.43-1.146.596-1.511.86 1 1.6 1.853 1.6 1.853s.31.414.788.707c-.239 0-.55.121-.931.487zm7.09 10.702h.024a9.086 9.086 0 0 1-5.658-2.048c-.263-.195-.597-.56-.883-.829.979-.463 1.743-.828 1.743-.828s.811-.293 1.241-1c-.12.244-.191.658.048 1.268.43 1.146 1.957 1 2.936 1.56 1.003.585 1.48 1.219.55 1.877zm2.96-4.997a1.937 1.937 0 0 0-.906-.366s-4.059-.634-5.348.366c0 0-.072.048-.143.17.19-.341.262-.804.143-1.34 0 0-.788-3.633-2.053-4.779.358.049.74-.024 1.17-.292 0 0 3.58-2.072 3.963-3.681v-.05a1.79 1.79 0 0 0 .668 1.512s2.722 2.487 4.393 2.658c-.31.17-.573.463-.74.926-.024.024-1.337 3.145-1.146 4.876zm2.317 3.583c-.358.293-1.05.683-1.385.878-.072-1.365-.143-2.536-.143-2.536s.024-.414-.144-.902c.215.074.502.147.908.098 1.193-.122 1.456-1.682 2.22-2.511.788-.829 1.504-1.146 1.886-.049v-.024a9.285 9.285 0 0 1-3.342 5.046zm1.384-9.532s-.477-.146-1.026-.073c.167-.17.358-.463.453-.926.263-1.195-1.098-1.926-1.623-2.95-.525-1.024-.573-1.828.549-1.853l-.024-.024c1.647 1.121 2.96 2.803 3.653 4.876.12.39.263 1.023.334 1.438a51.23 51.23 0 0 0-2.316-.488z"/></svg>