<svg xmlns="http://www.w3.org/2000/svg" width="36" height="36"><g fill="none" fill-rule="evenodd"><path fill="#009EE3" fill-opacity=".4" d="M15.794 28.104h4.41v-14.68h-4.41zm7.897 0h4.973v-14.68H23.69zm-16.159 0h4.775v-14.68H7.532z"/><path fill="#FFF" d="M5.501 12.83l12.498-9.114 12.499 9.115H5.5zm22.143-2.814l-9.645-7.035-9.636 7.035-4.68 3.408h28.633l-4.672-3.408zM5.58 28.618h24.84l.964 2.079H4.616l.964-2.08zm25.218-.593H5.208L3.684 31.29h28.633l-1.518-3.265z"/><path stroke="#009EE3" stroke-linecap="round" stroke-linejoin="round" stroke-width="1.05" d="M27.644 10.016l-9.645-7.035-9.636 7.035-4.68 3.408h28.633z"/><path stroke="#009EE3" stroke-linejoin="round" stroke-width="1.05" d="M3.49 31.437l1.585-3.415h25.78l1.584 3.415z"/><path stroke="#009EE3" stroke-linecap="square" stroke-width="1.05" d="M7.328 13.713v14.252m21.344-14.252v14.252"/></g></svg>