<svg xmlns="http://www.w3.org/2000/svg" width="36" height="36"><path fill="#F12700" fill-rule="evenodd" d="M18.468 3.636c0 3.596 5.948 7.587 5.948 11.691 0 0 0 .396-.166.82 5.562 1.188 9.5 3.99 9.5 7.274 0 4.416-7.022 8.039-15.723 8.067-.055.027-.11 0-.165 0-8.618 0-15.612-3.51-15.612-7.898 0-3.282 4.268-5.943 9.416-7.358 0 1.81 5.866 7.556 6.004 9.878 0 0 .027.198.027.425 0 .112 0 .226-.027.339 1.266-.679 1.266-2.802 1.266-2.802 0-5.038-5.7-7.273-5.7-12.228 0-1.924.881-3.339 1.68-3.735v1.387c0 3.594 6.169 7.613 6.169 10.896v1.076c1.431-.565 1.431-3.255 1.431-3.255 0-4.529-5.728-7.047-5.728-12.227 0-1.925.882-3.34 1.68-3.736v1.386z"/></svg>