<svg xmlns="http://www.w3.org/2000/svg" width="32" height="24" viewBox="0 0 53.568 40"><g fill-rule="evenodd" clip-rule="evenodd"><path fill="#EFA516" d="M.119 9.197a1.668 1.668 0 0 1 1.674-1.655l50.123.278a1.666 1.666 0 0 1 1.652 1.673l-.117 21.309a1.672 1.672 0 0 1-1.672 1.656L1.656 32.18A1.67 1.67 0 0 1 0 30.506L.119 9.197z"/><path fill="#FFF" d="M.115 9.953l53.449.296-.109 19.798-53.449-.296.109-19.798z"/><path fill="#E00819" d="M45.381 15.667a4.446 4.446 0 0 0-4.463 4.412 4.449 4.449 0 0 0 4.414 4.463 4.45 4.45 0 0 0 4.465-4.414 4.445 4.445 0 0 0-4.416-4.461zm-36.588-.203a4.442 4.442 0 0 0-4.461 4.412 4.445 4.445 0 0 0 4.412 4.463 4.45 4.45 0 0 0 4.465-4.414 4.447 4.447 0 0 0-4.416-4.461z"/><path fill="#E00819" d="M45.057 11.44c-4.109-.121-6.055 2.506-8.875 5.74l-2.666 3.05 4.162 5.038c.99 1.547-.924 3.066-2.096 1.649l-3.848-4.643-3.799 4.354c-1.207 1.388-3.082-.179-2.053-1.699l4.121-4.741-2.666-3.216 1.74-2.131 2.709 3.294 2.371-2.724c1.156-1.336 2.346-3.109 3.875-4.011L.106 11.19.012 28.518l8.865.049c4.109.023 5.99-2.423 8.736-5.723l2.592-3.112-4.277-4.939c-1.025-1.523.854-3.085 2.061-1.697l3.955 4.553 3.695-4.444c1.176-1.413 3.088.113 2.094 1.655l-4.014 4.835 2.74 3.154-1.746 2.048-2.729-3.11-2.305 2.776c-1.133 1.362-2.279 3.101-3.787 4.042l37.57.208.096-17.327-8.501-.046zm-29.274 8.181c-.02 3.864-3.186 6.998-7.051 6.977-3.863-.021-6.996-3.19-6.975-7.055.021-3.863 3.188-6.995 7.051-6.974 3.866.022 6.997 3.188 6.975 7.052zM45.318 26.8c-3.861-.021-6.994-3.19-6.973-7.055.021-3.863 3.189-6.995 7.051-6.974 3.865.021 6.996 3.188 6.975 7.051-.021 3.866-3.187 7-7.053 6.978z"/></g></svg>